<?xml version="1.0" standalone="no"?>
<!DOCTYPE svg PUBLIC "-//W3C//DTD SVG 20010904//EN"
 "http://www.w3.org/TR/2001/REC-SVG-20010904/DTD/svg10.dtd">
<svg version="1.0" xmlns="http://www.w3.org/2000/svg"
 width="426.000000pt" height="426.000000pt" viewBox="0 0 426.000000 426.000000"
 preserveAspectRatio="xMidYMid meet">

<g transform="translate(0.000000,426.000000) scale(0.100000,-0.100000)"
fill="#000000" stroke="none">
<path d="M1720 3880 c0 -5 5 -10 10 -10 6 0 10 5 10 10 0 6 -4 10 -10 10 -5 0
-10 -4 -10 -10z"/>
<path d="M1677 3843 c-4 -3 -7 -11 -7 -17 0 -6 5 -5 12 2 6 6 9 14 7 17 -3 3
-9 2 -12 -2z"/>
<path d="M1620 3820 c0 -5 5 -10 10 -10 6 0 10 5 10 10 0 6 -4 10 -10 10 -5 0
-10 -4 -10 -10z"/>
<path d="M1631 3762 c-7 -13 -11 -28 -8 -35 2 -7 9 -2 16 11 7 13 11 28 8 35
-2 7 -9 2 -16 -11z"/>
<path d="M310 3738 c0 -7 22 -25 48 -40 53 -29 353 -246 364 -262 4 -6 10 -7
14 -3 4 4 0 13 -8 20 -9 6 -89 67 -177 135 -169 127 -241 172 -241 150z"/>
<path d="M1570 3694 c0 -14 4 -23 10 -19 6 3 10 15 10 26 0 10 -4 19 -10 19
-5 0 -10 -12 -10 -26z"/>
<path d="M1608 3694 c-5 -4 -8 -16 -8 -28 0 -14 3 -17 11 -9 6 6 9 19 7 28 -1
9 -6 13 -10 9z"/>
<path d="M3677 3693 c-12 -12 -7 -22 8 -17 8 4 15 10 15 15 0 11 -14 12 -23 2z"/>
<path d="M3727 3681 c3 -10 0 -22 -6 -25 -15 -10 -14 -36 2 -36 7 0 13 16 15
40 1 22 -2 40 -7 40 -5 0 -7 -8 -4 -19z"/>
<path d="M3602 3627 c-34 -36 -27 -55 8 -21 16 16 30 32 30 37 0 14 -17 7 -38
-16z"/>
<path d="M1788 3612 c-40 -5 -34 -22 7 -22 19 0 35 4 35 9 0 14 -11 17 -42 13z"/>
<path d="M1875 3610 c3 -5 15 -10 25 -10 10 0 22 5 25 10 4 6 -7 10 -25 10
-18 0 -29 -4 -25 -10z"/>
<path d="M1975 3600 c-3 -5 -5 -10 -3 -11 2 0 12 -2 23 -4 11 -2 35 -7 53 -10
61 -11 29 12 -40 29 -15 3 -30 2 -33 -4z"/>
<path d="M1662 3589 c-35 -13 -17 -29 18 -16 30 11 41 28 18 26 -7 0 -23 -4
-36 -10z"/>
<path d="M3773 3582 c10 -10 17 -26 17 -35 0 -25 18 -30 25 -6 8 23 -19 59
-43 59 -13 0 -13 -3 1 -18z"/>
<path d="M1575 3577 c-4 -10 -3 -23 4 -30 16 -16 23 -3 12 24 -8 22 -10 22
-16 6z"/>
<path d="M2288 3563 c12 -2 30 -2 40 0 9 3 -1 5 -23 4 -22 0 -30 -2 -17 -4z"/>
<path d="M1610 3550 c0 -5 5 -10 10 -10 6 0 10 5 10 10 0 6 -4 10 -10 10 -5 0
-10 -4 -10 -10z"/>
<path d="M2380 3551 c0 -9 24 -21 43 -21 6 0 2 7 -9 15 -22 17 -34 19 -34 6z"/>
<path d="M2130 3540 c20 -13 33 -13 25 0 -3 6 -14 10 -23 10 -15 0 -15 -2 -2
-10z"/>
<path d="M2198 3539 c-18 -10 -25 -29 -10 -29 4 0 18 9 32 20 27 21 10 28 -22
9z"/>
<path d="M3500 3520 c0 -5 5 -10 10 -10 6 0 10 5 10 10 0 6 -4 10 -10 10 -5 0
-10 -4 -10 -10z"/>
<path d="M1530 3510 c0 -5 7 -10 15 -10 8 0 15 5 15 10 0 6 -7 10 -15 10 -8 0
-15 -4 -15 -10z"/>
<path d="M1480 3500 c0 -5 4 -10 9 -10 6 0 13 5 16 10 3 6 -1 10 -9 10 -9 0
-16 -4 -16 -10z"/>
<path d="M2470 3505 c0 -15 34 -85 41 -85 13 0 11 6 -11 50 -18 36 -30 49 -30
35z"/>
<path d="M3420 3452 c-14 -20 -40 -51 -58 -70 -26 -26 -32 -39 -28 -58 9 -33
23 -30 31 6 4 16 26 57 50 90 25 32 41 61 37 64 -4 2 -19 -12 -32 -32z"/>
<path d="M1397 3473 c-12 -12 -7 -22 8 -17 8 4 15 10 15 15 0 11 -14 12 -23 2z"/>
<path d="M3797 3454 c-4 -4 -7 -14 -7 -23 0 -11 3 -12 11 -4 6 6 10 16 7 23
-2 6 -7 8 -11 4z"/>
<path d="M1325 3420 c-3 -5 -1 -10 4 -10 6 0 11 5 11 10 0 6 -2 10 -4 10 -3 0
-8 -4 -11 -10z"/>
<path d="M3295 3400 c-22 -24 -14 -38 8 -16 9 9 23 13 33 9 12 -4 15 -2 12 8
-7 22 -32 22 -53 -1z"/>
<path d="M465 3360 c-167 -35 -205 -44 -205 -52 0 -14 45 -9 176 17 70 15 128
24 131 22 2 -3 -5 -20 -16 -38 -32 -52 -25 -54 29 -7 64 55 66 79 8 76 -24 -1
-79 -9 -123 -18z"/>
<path d="M2508 3370 c-4 -8 -9 -32 -13 -53 -3 -21 -9 -45 -12 -53 -3 -8 -1
-14 4 -14 15 0 35 72 31 105 -3 20 -6 25 -10 15z"/>
<path d="M3763 3357 c-18 -39 -16 -55 3 -35 9 8 14 26 12 39 -3 23 -3 23 -15
-4z"/>
<path d="M1255 3340 c-10 -11 -15 -23 -12 -27 7 -6 36 25 37 40 0 11 -6 8 -25
-13z"/>
<path d="M3245 3300 c-3 -5 -2 -10 4 -10 5 0 13 5 16 10 3 6 2 10 -4 10 -5 0
-13 -4 -16 -10z"/>
<path d="M2540 3290 c0 -5 7 -7 15 -4 8 4 15 8 15 10 0 2 -7 4 -15 4 -8 0 -15
-4 -15 -10z"/>
<path d="M3308 3275 c-7 -32 8 -43 16 -12 8 30 7 37 -3 37 -5 0 -11 -11 -13
-25z"/>
<path d="M3716 3265 c-11 -16 -12 -25 -5 -25 12 0 38 29 39 43 0 16 -18 6 -34
-18z"/>
<path d="M471 3188 c1 -136 16 -168 20 -40 1 56 2 107 3 114 1 6 -5 13 -11 16
-10 3 -13 -19 -12 -90z"/>
<path d="M2630 3265 c7 -8 22 -15 34 -15 20 1 20 2 -4 15 -33 19 -46 19 -30 0z"/>
<path d="M1199 3244 c-11 -30 -3 -46 11 -24 10 16 13 50 5 50 -3 0 -10 -12
-16 -26z"/>
<path d="M3240 3215 c0 -22 4 -34 10 -30 6 3 10 17 10 30 0 13 -4 27 -10 30
-6 4 -10 -8 -10 -30z"/>
<path d="M2590 3231 c0 -17 38 -56 47 -47 4 4 0 13 -9 19 -15 10 -15 12 0 24
15 11 14 12 -10 13 -16 0 -28 -4 -28 -9z"/>
<path d="M2656 3230 c5 -5 25 -12 44 -16 33 -5 34 -5 16 10 -22 17 -77 23 -60
6z"/>
<path d="M1090 3210 c0 -5 9 -10 21 -10 11 0 17 5 14 10 -3 6 -13 10 -21 10
-8 0 -14 -4 -14 -10z"/>
<path d="M2750 3200 c0 -5 7 -10 16 -10 8 0 12 5 9 10 -3 6 -10 10 -16 10 -5
0 -9 -4 -9 -10z"/>
<path d="M3645 3183 c-31 -42 -37 -53 -26 -53 11 0 71 61 71 73 0 16 -26 5
-45 -20z"/>
<path d="M1024 3186 c-10 -8 -16 -17 -13 -20 3 -3 14 1 25 8 10 8 16 17 13 20
-3 3 -14 -1 -25 -8z"/>
<path d="M2699 3150 c13 -11 35 -20 50 -20 22 0 20 3 -18 20 -54 25 -63 25
-32 0z"/>
<path d="M957 3143 c-4 -3 -7 -11 -7 -17 0 -6 5 -5 12 2 6 6 9 14 7 17 -3 3
-9 2 -12 -2z"/>
<path d="M3260 3105 c0 -49 -8 -62 -40 -68 -19 -3 -16 -5 12 -6 34 -1 38 1 43
32 4 17 2 43 -4 57 -9 23 -10 22 -11 -15z"/>
<path d="M2723 3108 c-23 -11 -32 -38 -13 -38 6 0 10 7 10 16 0 9 8 14 18 13
29 -3 42 1 42 11 0 13 -29 12 -57 -2z"/>
<path d="M3574 3096 c-10 -8 -15 -18 -11 -22 4 -4 17 2 30 14 24 25 12 30 -19
8z"/>
<path d="M931 3053 c0 -25 1 -26 9 -8 12 27 12 35 0 35 -5 0 -10 -12 -9 -27z"/>
<path d="M2675 3049 c-11 -17 1 -21 15 -4 8 9 8 15 2 15 -6 0 -14 -5 -17 -11z"/>
<path d="M3461 3024 c-17 -20 -20 -29 -11 -38 8 -8 14 -7 21 6 5 9 16 24 24
32 18 18 19 26 2 26 -7 0 -24 -12 -36 -26z"/>
<path d="M3160 2994 c0 -8 5 -12 10 -9 6 3 10 10 10 16 0 5 -4 9 -10 9 -5 0
-10 -7 -10 -16z"/>
<path d="M2600 2965 c-13 -14 -19 -25 -13 -25 5 0 20 11 33 25 13 14 19 25 13
25 -5 0 -20 -11 -33 -25z"/>
<path d="M606 2965 c-3 -9 1 -28 9 -43 l14 -27 0 30 c1 39 -13 64 -23 40z"/>
<path d="M3477 2974 c-4 -4 -7 -14 -7 -23 0 -11 3 -12 11 -4 6 6 10 16 7 23
-2 6 -7 8 -11 4z"/>
<path d="M930 2951 c0 -11 39 -59 40 -49 0 14 -23 58 -32 58 -4 0 -8 -4 -8 -9z"/>
<path d="M555 2940 c-10 -17 4 -62 18 -57 13 4 11 46 -3 60 -4 5 -11 4 -15 -3z"/>
<path d="M3112 2938 c-6 -6 -12 -19 -12 -27 0 -13 2 -13 16 1 9 9 15 21 13 27
-3 9 -8 8 -17 -1z"/>
<path d="M698 2912 c-21 -24 -68 -112 -68 -126 0 -6 6 -2 12 9 7 11 21 30 33
43 32 34 56 80 46 86 -4 3 -15 -2 -23 -12z"/>
<path d="M3416 2878 c-9 -12 -14 -24 -11 -26 6 -7 24 8 35 29 15 27 -5 25 -24
-3z"/>
<path d="M1010 2855 c7 -9 15 -13 17 -11 7 7 -7 26 -19 26 -6 0 -6 -6 2 -15z"/>
<path d="M2610 2851 c0 -10 53 -51 66 -51 4 0 -5 14 -21 30 -29 30 -45 38 -45
21z"/>
<path d="M3038 2829 c-10 -17 -18 -36 -18 -42 0 -16 49 44 50 61 0 21 -14 13
-32 -19z"/>
<path d="M956 2769 c-14 -17 -26 -36 -26 -42 1 -7 9 -2 20 11 10 13 29 32 42
42 18 16 20 19 6 20 -9 0 -28 -14 -42 -31z"/>
<path d="M3332 2748 c-14 -14 -16 -38 -3 -38 8 0 23 41 17 47 -1 1 -8 -3 -14
-9z"/>
<path d="M978 2724 c-5 -4 -8 -16 -8 -28 0 -14 3 -17 11 -9 6 6 9 19 7 28 -1
9 -6 13 -10 9z"/>
<path d="M2725 2705 c4 -11 10 -28 12 -37 3 -10 9 -18 14 -18 16 0 10 27 -12
51 -18 21 -20 21 -14 4z"/>
<path d="M2957 2685 c-19 -40 -20 -45 -9 -45 9 0 42 54 42 69 0 22 -17 10 -33
-24z"/>
<path d="M545 2648 c-3 -7 -10 -31 -17 -53 -12 -37 -17 -40 -61 -48 -58 -11
-64 -32 -6 -24 40 5 41 5 34 -21 -13 -52 -26 -134 -22 -138 2 -2 15 36 30 85
22 72 31 90 49 95 23 6 118 9 118 3 0 -1 -9 -27 -19 -57 -11 -30 -22 -73 -26
-95 -6 -39 -6 -40 9 -14 20 34 66 157 66 176 0 12 -15 14 -76 11 l-76 -3 6 25
c3 14 8 35 12 48 7 23 -13 32 -21 10z"/>
<path d="M900 2616 c1 -38 2 -40 15 -22 20 26 19 63 0 63 -11 0 -15 -11 -15
-41z"/>
<path d="M3252 2602 c-25 -57 -26 -62 -13 -62 11 0 44 86 39 102 -2 6 -14 -12
-26 -40z"/>
<path d="M1080 2584 c0 -27 5 -56 11 -64 7 -11 8 3 3 45 -8 75 -14 83 -14 19z"/>
<path d="M998 2605 c-3 -24 -6 -32 -16 -56 -6 -15 -13 -44 -16 -65 l-6 -39 15
30 c8 17 14 36 15 43 0 6 4 12 9 12 13 0 23 62 11 74 -6 6 -11 6 -12 1z"/>
<path d="M2906 2575 c-18 -42 -21 -69 -6 -60 11 7 34 85 26 92 -3 3 -12 -12
-20 -32z"/>
<path d="M946 2583 c-10 -10 -7 -85 3 -79 5 3 11 22 13 42 4 34 -3 50 -16 37z"/>
<path d="M1057 2584 c-4 -4 -7 -17 -7 -28 1 -19 1 -20 11 -3 11 19 8 43 -4 31z"/>
<path d="M2788 2548 c-4 -9 -1 -36 7 -60 l13 -43 0 35 c0 19 -3 46 -7 60 -6
21 -8 22 -13 8z"/>
<path d="M1051 2475 c-1 -40 12 -75 24 -63 4 3 0 28 -8 55 l-15 48 -1 -40z"/>
<path d="M2860 2463 c-8 -16 -16 -32 -18 -37 -3 -5 1 -7 8 -4 14 4 43 68 31
68 -4 0 -14 -12 -21 -27z"/>
<path d="M1020 2459 c7 -11 14 -19 16 -16 7 7 -7 37 -17 37 -6 0 -5 -9 1 -21z"/>
<path d="M1120 2442 c0 -10 7 -27 16 -38 15 -18 15 -18 10 6 -3 14 -6 31 -6
38 0 6 -4 12 -10 12 -5 0 -10 -8 -10 -18z"/>
<path d="M2750 2441 c0 -6 5 -13 10 -16 6 -3 10 1 10 9 0 9 -4 16 -10 16 -5 0
-10 -4 -10 -9z"/>
<path d="M3177 2398 c-6 -21 -2 -36 7 -27 10 11 16 49 8 49 -5 0 -12 -10 -15
-22z"/>
<path d="M2776 2391 c-18 -19 -23 -101 -6 -101 6 0 10 20 10 45 0 25 5 45 10
45 6 0 10 -9 10 -19 0 -19 23 -35 34 -24 10 11 6 44 -7 56 -19 18 -33 18 -51
-2z"/>
<path d="M2581 2329 c-14 -40 -14 -59 -1 -59 6 0 10 8 10 18 0 26 11 34 27 21
18 -15 17 9 -1 34 -18 23 -22 22 -35 -14z"/>
<path d="M1178 2313 c-7 -26 3 -93 13 -93 7 0 3 100 -5 108 -2 1 -6 -5 -8 -15z"/>
<path d="M3137 2263 c-4 -3 -7 -17 -7 -30 0 -12 -5 -23 -11 -23 -19 0 -5 -20
29 -41 26 -17 32 -18 32 -6 0 9 -9 19 -20 22 -17 5 -19 12 -14 46 6 38 4 46
-9 32z"/>
<path d="M2435 2250 c-3 -5 -1 -10 4 -10 6 0 11 5 11 10 0 6 -2 10 -4 10 -3 0
-8 -4 -11 -10z"/>
<path d="M2650 2231 c0 -6 5 -13 10 -16 6 -3 10 1 10 9 0 9 -4 16 -10 16 -5 0
-10 -4 -10 -9z"/>
<path d="M2552 2197 c-16 -44 -15 -68 2 -37 20 37 29 70 19 70 -5 0 -14 -15
-21 -33z"/>
<path d="M2500 2210 c0 -5 5 -10 10 -10 6 0 10 5 10 10 0 6 -4 10 -10 10 -5 0
-10 -4 -10 -10z"/>
<path d="M2415 2190 c-4 -12 -5 -24 -2 -27 3 -2 8 5 12 17 4 12 5 24 2 27 -3
2 -8 -5 -12 -17z"/>
<path d="M2450 2200 c0 -5 5 -10 10 -10 6 0 10 5 10 10 0 6 -4 10 -10 10 -5 0
-10 -4 -10 -10z"/>
<path d="M2450 2125 c0 -25 5 -45 10 -45 6 0 10 20 10 45 0 25 -4 45 -10 45
-5 0 -10 -20 -10 -45z"/>
<path d="M2486 2154 c-11 -28 -6 -39 9 -20 8 11 15 23 15 28 0 14 -18 9 -24
-8z"/>
<path d="M500 2116 c0 -53 20 -146 32 -146 9 0 11 150 2 174 -3 9 -12 16 -20
16 -10 0 -14 -13 -14 -44z"/>
<path d="M2660 2150 c-8 -5 -11 -12 -8 -16 4 -3 14 1 23 10 18 17 9 21 -15 6z"/>
<path d="M2307 2143 c-11 -10 -8 -45 3 -38 6 3 10 -1 10 -9 0 -9 5 -16 10 -16
14 0 13 13 -3 44 -8 14 -17 23 -20 19z"/>
<path d="M2506 2117 c-5 -15 -6 -31 -2 -34 11 -11 18 5 14 34 l-4 28 -8 -28z"/>
<path d="M3222 2113 c15 -15 31 -23 35 -19 9 8 -32 46 -50 46 -7 0 1 -12 15
-27z"/>
<path d="M685 2118 c-5 -17 -24 -106 -29 -140 -3 -16 -7 -76 -10 -135 l-5
-108 14 85 c17 98 45 255 52 288 6 23 -14 32 -22 10z"/>
<path d="M1214 2095 c10 -56 16 -75 25 -75 11 0 -8 92 -21 105 -7 7 -8 -3 -4
-30z"/>
<path d="M1270 2115 c0 -8 5 -15 10 -15 6 0 10 7 10 15 0 8 -4 15 -10 15 -5 0
-10 -7 -10 -15z"/>
<path d="M2585 2090 c-10 -11 -14 -20 -8 -20 5 0 18 9 28 20 10 11 14 20 8 20
-5 0 -18 -9 -28 -20z"/>
<path d="M2378 2083 c-6 -22 1 -43 13 -43 5 0 8 14 7 30 -2 33 -13 40 -20 13z"/>
<path d="M1265 2070 c-9 -14 4 -130 15 -130 7 0 2 130 -5 138 -2 2 -6 -2 -10
-8z"/>
<path d="M1300 2061 c0 -5 7 -14 15 -21 16 -14 18 -10 9 14 -6 17 -24 22 -24
7z"/>
<path d="M2246 2038 c-27 -38 -18 -54 9 -18 28 38 29 40 16 40 -6 0 -17 -10
-25 -22z"/>
<path d="M2330 2041 c0 -12 5 -21 10 -21 6 0 10 6 10 14 0 8 -4 18 -10 21 -5
3 -10 -3 -10 -14z"/>
<path d="M3270 2050 c0 -5 5 -10 10 -10 6 0 10 5 10 10 0 6 -4 10 -10 10 -5 0
-10 -4 -10 -10z"/>
<path d="M2530 2040 c0 -5 5 -10 10 -10 6 0 10 5 10 10 0 6 -4 10 -10 10 -5 0
-10 -4 -10 -10z"/>
<path d="M2455 2028 c-16 -5 -37 -12 -45 -15 -8 -4 -19 -7 -25 -7 -13 -1 -19
-36 -6 -36 6 0 11 4 11 8 0 12 47 32 75 32 32 0 56 10 49 21 -6 11 -20 10 -59
-3z"/>
<path d="M1720 2011 c0 -6 5 -13 10 -16 6 -3 10 1 10 9 0 9 -4 16 -10 16 -5 0
-10 -4 -10 -9z"/>
<path d="M3282 2008 c-7 -7 -12 -19 -12 -27 0 -11 5 -8 16 7 18 25 15 39 -4
20z"/>
<path d="M1750 1999 c0 -17 27 -45 35 -37 3 3 -3 16 -14 29 -16 19 -20 20 -21
8z"/>
<path d="M1364 1973 c3 -10 8 -44 12 -77 4 -33 10 -53 14 -46 14 22 -4 140
-21 140 -6 0 -8 -8 -5 -17z"/>
<path d="M1530 1984 c0 -9 32 -33 44 -34 5 0 1 9 -9 20 -18 20 -35 26 -35 14z"/>
<path d="M1670 1968 c0 -16 -6 -28 -16 -30 -12 -2 -8 -10 16 -33 l32 -30 -6
35 -7 35 20 -25 c11 -14 21 -33 21 -42 0 -10 5 -18 11 -18 7 0 9 9 5 23 -3 12
-6 32 -6 45 0 13 -4 20 -10 17 -5 -3 -21 6 -35 22 l-24 28 -1 -27z"/>
<path d="M1428 1957 c-4 -19 0 -23 21 -24 14 -1 20 1 14 4 -7 2 -13 11 -13 18
0 24 -18 26 -22 2z"/>
<path d="M1860 1963 c0 -13 5 -23 10 -23 13 0 13 11 0 30 -8 12 -10 11 -10 -7z"/>
<path d="M2315 1954 l-30 -12 33 0 c18 1 35 5 38 9 9 15 -11 16 -41 3z"/>
<path d="M1820 1936 c-13 -26 -8 -56 10 -56 5 0 10 18 10 40 0 22 -1 40 -3 40
-2 0 -9 -11 -17 -24z"/>
<path d="M3235 1950 c-3 -5 -1 -10 4 -10 6 0 11 5 11 10 0 6 -2 10 -4 10 -3 0
-8 -4 -11 -10z"/>
<path d="M1534 1925 c3 -8 9 -22 12 -30 4 -10 0 -15 -12 -15 -17 -1 -16 -3 5
-20 21 -18 51 -27 51 -15 0 14 -45 95 -53 95 -5 0 -6 -7 -3 -15z"/>
<path d="M1890 1875 c0 -14 5 -25 10 -25 6 0 10 11 10 25 0 14 -4 25 -10 25
-5 0 -10 -11 -10 -25z"/>
<path d="M3165 1889 c-12 -19 5 -23 22 -6 16 16 16 17 1 17 -9 0 -20 -5 -23
-11z"/>
<path d="M1835 1779 c-38 -29 -55 -49 -40 -49 11 0 105 64 105 72 0 15 -26 6
-65 -23z"/>
<path d="M3054 1776 c-10 -8 -15 -18 -11 -22 4 -4 17 2 30 14 24 25 12 30 -19
8z"/>
<path d="M1755 1710 c-3 -5 -2 -10 4 -10 5 0 13 5 16 10 3 6 2 10 -4 10 -5 0
-13 -4 -16 -10z"/>
<path d="M2950 1690 c-20 -16 -22 -20 -7 -20 9 0 17 5 17 10 0 6 6 10 14 10 8
0 18 5 21 10 11 17 -19 11 -45 -10z"/>
<path d="M1659 1678 c-52 -32 -96 -88 -69 -88 6 0 10 3 10 8 0 4 16 16 34 26
42 23 81 62 69 69 -5 3 -25 -3 -44 -15z"/>
<path d="M2848 1594 c-16 -8 -28 -19 -28 -24 0 -5 -9 -18 -21 -29 -11 -10 -17
-21 -12 -23 4 -2 30 17 57 44 51 49 52 58 4 32z"/>
<path d="M641 1554 c16 -32 18 -52 13 -145 -6 -100 -5 -111 16 -144 12 -20 23
-35 24 -33 2 2 0 68 -4 148 -6 139 -16 184 -44 202 -22 15 -23 7 -5 -28z"/>
<path d="M1537 1545 c-4 -8 -2 -17 3 -20 6 -4 10 -4 10 -1 0 2 3 11 6 20 3 9
2 16 -4 16 -5 0 -12 -7 -15 -15z"/>
<path d="M1542 1498 c5 -15 28 -23 28 -10 0 5 -7 13 -16 16 -10 4 -14 1 -12
-6z"/>
<path d="M2797 1493 c-5 -7 -1 -25 7 -40 16 -29 19 -16 7 27 -5 16 -9 21 -14
13z"/>
<path d="M1525 1449 c-10 -31 0 -33 19 -4 14 21 14 25 2 25 -8 0 -18 -9 -21
-21z"/>
<path d="M2837 1353 c-2 -4 0 -19 6 -33 l10 -25 5 24 c4 24 -12 50 -21 34z"/>
<path d="M1475 1310 c-13 -41 -15 -69 -5 -75 6 -4 10 8 10 29 0 19 5 38 10 41
13 8 13 25 1 25 -5 0 -12 -9 -16 -20z"/>
<path d="M1481 1178 c-1 -16 4 -28 9 -28 12 0 12 8 0 35 -8 18 -9 17 -9 -7z"/>
<path d="M2903 1155 c12 -41 30 -48 21 -7 -8 34 -13 42 -24 42 -4 0 -3 -16 3
-35z"/>
<path d="M1480 1069 c0 -24 4 -38 10 -34 6 3 10 22 10 41 0 19 -4 34 -10 34
-5 0 -10 -18 -10 -41z"/>
<path d="M1107 947 c-108 -191 -241 -455 -214 -427 8 8 48 80 89 160 42 80
100 186 131 237 75 123 89 151 78 157 -5 3 -43 -54 -84 -127z"/>
<path d="M610 1060 c0 -5 21 -16 48 -24 26 -8 56 -18 66 -22 38 -15 4 18 -38
37 -45 20 -76 24 -76 9z"/>
<path d="M2945 1029 c4 -12 8 -28 9 -35 3 -22 16 -29 16 -8 0 31 -12 64 -22
64 -5 0 -6 -10 -3 -21z"/>
<path d="M1470 966 c-12 -34 -13 -46 -1 -46 11 0 26 59 17 67 -3 3 -10 -6 -16
-21z"/>
<path d="M785 829 c-65 -45 -127 -84 -137 -88 -11 -4 -14 -11 -9 -20 7 -10 15
-10 42 4 19 10 36 21 39 25 3 4 46 37 95 74 105 80 112 86 100 86 -6 0 -64
-37 -130 -81z"/>
<path d="M2980 876 c0 -14 5 -28 10 -31 6 -4 10 7 10 24 0 17 -4 31 -10 31 -5
0 -10 -11 -10 -24z"/>
<path d="M1435 864 c-4 -10 -11 -27 -16 -36 -5 -10 -5 -19 0 -23 10 -6 36 63
27 72 -3 3 -8 -3 -11 -13z"/>
<path d="M3015 733 c3 -21 11 -42 17 -48 7 -7 9 -2 4 15 -3 14 -6 35 -6 48 0
12 -5 22 -11 22 -8 0 -9 -13 -4 -37z"/>
<path d="M1397 754 c-4 -4 -7 -14 -7 -23 0 -11 3 -12 11 -4 6 6 10 16 7 23 -2
6 -7 8 -11 4z"/>
<path d="M1470 691 c0 -5 8 -11 18 -14 9 -2 25 -8 35 -12 27 -11 20 11 -8 23
-31 14 -45 15 -45 3z"/>
<path d="M3041 598 c-1 -20 4 -40 9 -43 12 -7 12 32 0 60 -7 16 -9 13 -9 -17z"/>
<path d="M1544 606 c-3 -8 -1 -23 5 -33 9 -15 10 -13 11 15 0 34 -7 42 -16 18z"/>
<path d="M3054 481 c3 -18 6 -38 6 -43 0 -5 5 -6 10 -3 11 7 3 55 -13 70 -6 7
-8 -1 -3 -24z"/>
<path d="M1562 440 c0 -14 2 -19 5 -12 2 6 2 18 0 25 -3 6 -5 1 -5 -13z"/>
<path d="M1566 365 c-3 -8 -1 -25 4 -37 8 -20 9 -18 9 15 1 39 -3 47 -13 22z"/>
<path d="M3090 359 c0 -9 9 -24 20 -34 26 -23 26 -8 0 25 -14 18 -20 21 -20 9z"/>
<path d="M1544 256 c-3 -8 -4 -25 -2 -38 2 -19 5 -17 15 15 10 35 -1 55 -13
23z"/>
<path d="M3150 243 c0 -10 4 -24 9 -32 12 -19 24 3 16 29 -8 25 -25 26 -25 3z"/>
<path d="M1507 143 c-4 -3 -7 -16 -7 -27 1 -21 1 -21 15 -2 8 11 15 23 15 28
0 10 -14 11 -23 1z"/>
<path d="M3165 141 c-3 -5 -1 -12 5 -16 5 -3 10 1 10 9 0 18 -6 21 -15 7z"/>
<path d="M3181 85 c0 -11 6 -29 14 -39 20 -26 20 0 0 34 -13 22 -14 23 -14 5z"/>
<path d="M1485 27 c-4 -10 -5 -21 -1 -24 10 -10 18 4 13 24 -4 17 -4 17 -12 0z"/>
</g>
</svg>
